<?xml version="1.0" encoding="utf-8"?>
<!-- Generator: Adobe Illustrator 20.1.0, SVG Export Plug-In . SVG Version: 6.00 Build 0)  -->
<svg version="1.1" id="Layer_1" xmlns="http://www.w3.org/2000/svg" xmlns:xlink="http://www.w3.org/1999/xlink" x="0px" y="0px"
	 viewBox="0 0 300 100" style="enable-background:new 0 0 300 100;" xml:space="preserve">
<style type="text/css">
	.st0{clip-path:url(#SVGID_2_);}
</style>
<g>
	<defs>
		<ellipse id="SVGID_1_" cx="140.7" cy="50" rx="29.1" ry="45"/>
	</defs>
	<clipPath id="SVGID_2_">
		<use xlink:href="#SVGID_1_"  style="overflow:visible;"/>
	</clipPath>
	<path class="st0" d="M152.4,54.1c0.1,0-1,1-0.9,0.9c0.6,2.1,4.2-0.2,4.2-0.2S154.6,54.5,152.4,54.1c-1-0.1-0.9-0.2-2.2-0.3
		c-2.6-0.2-8.2-0.2-8.2-0.2s8.7-2.9,13.1-3.4c4.5-0.5,7.3,1.2,7.3,1.2s0-0.6-1.1-2.1c-1.1-1.5-4.2-2.6-6.7-3.1
		c-2.5-0.5-5.3-0.3-5.3-0.3s-0.5-0.5-5.3-0.4c-4.8,0.1-2.1,0.9-5.1-0.1c-3-1-7.4-1.1-14.1,0.9c-9.6,3.3-20.9,17.3-20.9,17.3
		l9.2,31.6l1.3-0.3c0,0,7.7-1.8,12-6.6c4.3-4.8,6.5-13,7-15.5c0.5-2.5,0-4.2,2.8-5.7c2.8-1.6,5.5-7.4,7.2-8.2c1.7-0.8,1.9-1.2,8.7-1
		c6.9,0.3,8.7-1,8.7-1s-1.6-0.9-3.2-1.5C156.3,54.9,154.2,54.4,152.4,54.1z M134.2,52.5c-0.7,0-1.3-0.6-1.3-1.3
		c0-0.7,0.6-1.3,1.3-1.3c0.7,0,1.3,0.6,1.3,1.3C135.5,51.9,134.9,52.5,134.2,52.5z"/>
	<g class="st0">
		<path d="M137.9,37c0-0.4,0.1-0.7,0.2-1.1c0.1-0.3,0.3-0.6,0.6-0.9c0.2-0.2,0.5-0.4,0.9-0.6c0.3-0.1,0.7-0.2,1.1-0.2
			c0.4,0,0.8,0.1,1.1,0.2c0.3,0.1,0.6,0.3,0.9,0.6c0.3,0.2,0.5,0.5,0.6,0.9c0.1,0.3,0.2,0.7,0.2,1.1c0,0.4-0.1,0.7-0.2,1.1
			c-0.1,0.3-0.3,0.6-0.6,0.9c-0.3,0.2-0.6,0.4-0.9,0.6c-0.3,0.1-0.7,0.2-1.1,0.2c-0.4,0-0.8-0.1-1.1-0.2c-0.3-0.1-0.6-0.3-0.9-0.6
			c-0.2-0.2-0.4-0.5-0.6-0.9C138,37.7,137.9,37.3,137.9,37z M143,16.3v9.1c0,1-0.1,1.9-0.2,2.9c-0.1,1-0.3,1.9-0.5,2.9h-3.3
			c-0.2-1-0.3-2-0.5-2.9c-0.1-1-0.2-1.9-0.2-2.9v-9.1H143z"/>
	</g>
</g>
<g>
	<path d="M82.1,64.7h16.8v3.4c0,0.5-0.1,0.9-0.4,1.1c-0.3,0.3-0.7,0.4-1.3,0.4H82.1V96h-5.5V69.6H33.1c-0.6,0-1.1-0.1-1.5-0.4
		c-0.3-0.3-0.6-0.7-0.7-1.1L30.3,65L76.5,3.9h5.5V64.7z M76.6,16.5c0-0.7,0-1.5,0.1-2.4c0.1-0.9,0.1-1.8,0.2-2.7L37.1,64.7h39.5
		V16.5z"/>
	<path d="M173.7,50c0,8.1-0.9,15-2.6,20.9c-1.7,5.9-4.1,10.8-7.1,14.6c-3,3.9-6.5,6.7-10.5,8.6c-4,1.9-8.3,2.8-12.8,2.8
		c-4.5,0-8.8-0.9-12.8-2.8c-4-1.9-7.5-4.8-10.5-8.6c-3-3.9-5.3-8.7-7.1-14.6c-1.7-5.9-2.6-12.9-2.6-20.9c0-8.1,0.9-15,2.6-20.9
		c1.7-5.9,4.1-10.8,7.1-14.6c3-3.9,6.5-6.7,10.5-8.6c4-1.9,8.3-2.8,12.8-2.8c4.6,0,8.8,0.9,12.8,2.8c4,1.9,7.5,4.8,10.5,8.6
		c3,3.9,5.4,8.7,7.1,14.6C172.8,35,173.7,41.9,173.7,50z M167.2,50c0-7.5-0.7-13.8-2.1-19.1c-1.4-5.3-3.3-9.6-5.8-13
		c-2.4-3.4-5.2-5.8-8.5-7.4c-3.2-1.6-6.6-2.3-10.2-2.3c-3.6,0-6.9,0.8-10.1,2.3c-3.2,1.6-6,4-8.5,7.4c-2.4,3.4-4.4,7.7-5.8,13
		c-1.4,5.3-2.1,11.7-2.1,19.1c0,7.5,0.7,13.9,2.1,19.1c1.4,5.3,3.4,9.6,5.8,12.9c2.4,3.4,5.2,5.8,8.5,7.3c3.2,1.5,6.6,2.3,10.1,2.3
		c3.6,0,6.9-0.8,10.2-2.3c3.2-1.5,6-4,8.5-7.3c2.4-3.4,4.3-7.7,5.8-12.9C166.5,63.9,167.2,57.5,167.2,50z"/>
	<path d="M232.9,64.7h16.8v3.4c0,0.5-0.1,0.9-0.4,1.1c-0.3,0.3-0.7,0.4-1.3,0.4h-15.1V96h-5.5V69.6h-43.5c-0.7,0-1.1-0.1-1.5-0.4
		c-0.3-0.3-0.6-0.7-0.7-1.1l-0.6-3.1l46.2-61.1h5.5V64.7z M227.4,16.5c0-0.7,0-1.5,0.1-2.4c0.1-0.9,0.1-1.8,0.2-2.7l-39.8,53.2h39.5
		V16.5z"/>
</g>
</svg>
