<?xml version="1.0" encoding="utf-8"?>
<!-- Generator: Adobe Illustrator 21.1.0, SVG Export Plug-In . SVG Version: 6.00 Build 0)  -->
<svg version="1.1" id="Layer_1" xmlns="http://www.w3.org/2000/svg" xmlns:xlink="http://www.w3.org/1999/xlink" x="0px" y="0px"
	 viewBox="0 0 100 100" style="enable-background:new 0 0 100 100;" xml:space="preserve">
<style type="text/css">
	.st0{fill:#111111;}
</style>
<g transform="translate(0,-1020.3622)">
	<path class="st0" d="M26.4,1044.5v3h32.5v23.6H26.4v3h33.9c0.8,0,1.5-0.7,1.5-1.5V1046c0-0.8-0.7-1.5-1.5-1.5H26.4z"/>
	<path class="st0" d="M60.3,1059.3v3h19.6l-6.2,11.1c-0.2,0.4-0.2,1,0,1.4l6.2,11.1H50v-13.3h-3v14.8c0,0.8,0.7,1.5,1.5,1.5h33.9
		c0.8,0,1.5-0.7,1.5-1.5c0-0.2-0.1-0.5-0.2-0.7l-7-12.6l7-12.6c0.4-0.7,0.1-1.6-0.6-2c-0.2-0.1-0.5-0.2-0.7-0.2H60.3z"/>
	<path class="st0" d="M10.2,1112.4c-0.8,0-1.5,0.6-1.5,1.5c0,0.8,0.6,1.5,1.5,1.5c0,0,0,0,0,0h29.5c0.8,0,1.5-0.6,1.5-1.5
		c0-0.8-0.6-1.5-1.5-1.5c0,0,0,0,0,0H10.2z"/>
	<path class="st0" d="M54.4,1113.9c0,0.8,0.7,1.5,1.5,1.5c0.8,0,1.5-0.7,1.5-1.5c0-0.8-0.7-1.5-1.5-1.5
		C55.1,1112.4,54.4,1113.1,54.4,1113.9z"/>
	<path class="st0" d="M45.6,1112.4c-0.8,0-1.5,0.6-1.5,1.5c0,0.8,0.6,1.5,1.5,1.5c0,0,0,0,0,0H50c0.8,0,1.5-0.6,1.5-1.5
		c0-0.8-0.6-1.5-1.5-1.5c0,0,0,0,0,0H45.6z"/>
	<path class="st0" d="M61.8,1112.4c-0.8,0-1.5,0.6-1.5,1.5c0,0.8,0.6,1.5,1.5,1.5c0,0,0,0,0,0h2.9c0.8,0,1.5-0.6,1.5-1.5
		s-0.6-1.5-1.5-1.5c0,0,0,0,0,0H61.8z"/>
	<path class="st0" d="M70.7,1112.4c-0.8,0-1.5,0.6-1.5,1.5c0,0.8,0.6,1.5,1.5,1.5c0,0,0,0,0,0h19.1c0.8,0,1.5-0.6,1.5-1.5
		c0-0.8-0.6-1.5-1.5-1.5c0,0,0,0,0,0H70.7z"/>
	<path class="st0" d="M26.4,1025.4c-0.6,0-1.2,0.4-1.4,1l-3.7,10.3c-0.2,0.6,0,1.3,0.5,1.6l3.7,3c0.5,0.4,1.3,0.4,1.8,0l3.7-3
		c0.5-0.4,0.7-1.1,0.5-1.6l-3.7-10.3C27.6,1025.8,27,1025.4,26.4,1025.4z M26.4,1031.2l1.9,5.4l-1.9,1.6l-1.9-1.6L26.4,1031.2z"/>
	<path class="st0" d="M24.9,1040.1v73.8h3v-73.8H24.9z"/>
	<path class="st0" d="M59.2,1071.7l-11.1,14l2.3,1.8l11.1-14L59.2,1071.7z"/>
</g>
</svg>
