<?xml version="1.0" encoding="utf-8"?>
<!-- Generator: Adobe Illustrator 20.1.0, SVG Export Plug-In . SVG Version: 6.00 Build 0)  -->
<svg version="1.1" id="Layer_1" xmlns="http://www.w3.org/2000/svg" xmlns:xlink="http://www.w3.org/1999/xlink" x="0px" y="0px"
	 viewBox="0 0 87 71" style="enable-background:new 0 0 87 71;" xml:space="preserve">
<style type="text/css">
	.st0{fill:#FFFFFF;}
</style>
<path class="st0" d="M43.4,38.3c-0.3,0-0.7-0.1-1-0.2l-40-16c-1-0.4-1.7-1.4-1.7-2.6s0.7-2.1,1.7-2.6l40-16c0.7-0.3,1.4-0.3,2,0
	l40,16c1,0.4,1.7,1.4,1.7,2.6s-0.7,2.1-1.7,2.6l-40,16C44.1,38.2,43.7,38.3,43.4,38.3z M10.8,19.5l32.6,13l32.6-13l-32.6-13
	L10.8,19.5z"/>
<path class="st0" d="M43.4,54.3c-0.3,0-0.7-0.1-1-0.2l-40-16c-1.4-0.6-2.1-2.2-1.5-3.6s2.2-2.1,3.6-1.5l39,15.6l39-15.6
	c1.4-0.6,3,0.1,3.6,1.5s-0.1,3-1.5,3.6l-40,16C44.1,54.2,43.7,54.3,43.4,54.3z"/>
<path class="st0" d="M43.4,70.3c-0.3,0-0.7-0.1-1-0.2l-40-16c-1.4-0.6-2.1-2.2-1.5-3.6s2.2-2.1,3.6-1.5l39,15.6l39-15.6
	c1.4-0.6,3,0.1,3.6,1.5s-0.1,3-1.5,3.6l-40,16C44.1,70.2,43.7,70.3,43.4,70.3z"/>
</svg>
