<?xml version="1.0" encoding="utf-8"?>
<!-- Generator: Adobe Illustrator 21.1.0, SVG Export Plug-In . SVG Version: 6.00 Build 0)  -->
<svg version="1.1" id="Layer_1" xmlns="http://www.w3.org/2000/svg" xmlns:xlink="http://www.w3.org/1999/xlink" x="0px" y="0px"
	 viewBox="0 0 100 100" style="enable-background:new 0 0 100 100;" xml:space="preserve">
<style type="text/css">
	.st0{fill:#11AACC;}
	.st1{fill:#FFFFFF;}
	.st2{fill:#999999;}
</style>
<g>
	<circle class="st0" cx="50" cy="49" r="48"/>
</g>
<rect x="31" y="25" class="st1" width="37" height="48"/>
<g>
	<g>
		<path class="st1" d="M68.5,24h-37c-0.5,0-0.9,0.4-0.9,0.9v48.1c0,0.5,0.4,0.9,0.9,0.9h37c0.5,0,0.9-0.4,0.9-0.9V24.9
			C69.4,24.4,69,24,68.5,24z M67.6,72.1H32.4V25.9h35.2V72.1z"/>
		<path class="st2" d="M46.3,33.3H62c0.5,0,0.9-0.4,0.9-0.9c0-0.5-0.4-0.9-0.9-0.9H46.3c-0.5,0-0.9,0.4-0.9,0.9
			C45.4,32.8,45.8,33.3,46.3,33.3z"/>
		<path class="st2" d="M46.3,37.9h12c0.5,0,0.9-0.4,0.9-0.9S58.8,36,58.3,36h-12c-0.5,0-0.9,0.4-0.9,0.9S45.8,37.9,46.3,37.9z"/>
		<path class="st2" d="M46.3,43.4H62c0.5,0,0.9-0.4,0.9-0.9c0-0.5-0.4-0.9-0.9-0.9H46.3c-0.5,0-0.9,0.4-0.9,0.9
			C45.4,43,45.8,43.4,46.3,43.4z"/>
		<path class="st2" d="M46.3,48.1h12c0.5,0,0.9-0.4,0.9-0.9s-0.4-0.9-0.9-0.9h-12c-0.5,0-0.9,0.4-0.9,0.9S45.8,48.1,46.3,48.1z"/>
		<path class="st2" d="M46.3,53.6H62c0.5,0,0.9-0.4,0.9-0.9s-0.4-0.9-0.9-0.9H46.3c-0.5,0-0.9,0.4-0.9,0.9S45.8,53.6,46.3,53.6z"/>
		<path class="st2" d="M46.3,58.3h12c0.5,0,0.9-0.4,0.9-0.9s-0.4-0.9-0.9-0.9h-12c-0.5,0-0.9,0.4-0.9,0.9S45.8,58.3,46.3,58.3z"/>
		<path class="st2" d="M46.3,63.8H62c0.5,0,0.9-0.4,0.9-0.9S62.5,62,62,62H46.3c-0.5,0-0.9,0.4-0.9,0.9S45.8,63.8,46.3,63.8z"/>
		<path class="st2" d="M46.3,68.4h12c0.5,0,0.9-0.4,0.9-0.9c0-0.5-0.4-0.9-0.9-0.9h-12c-0.5,0-0.9,0.4-0.9,0.9
			C45.4,68,45.8,68.4,46.3,68.4z"/>
		<path class="st0" d="M37,62.9c0,1.5,1.2,2.8,2.8,2.8s2.8-1.2,2.8-2.8c0-1.2-0.8-2.2-1.9-2.6v-5c1.1-0.4,1.9-1.4,1.9-2.6
			c0-1.2-0.8-2.2-1.9-2.6v-5c1.1-0.4,1.9-1.4,1.9-2.6c0-1.2-0.8-2.2-1.9-2.6v-5c1.1-0.4,1.9-1.4,1.9-2.6c0-1.5-1.2-2.8-2.8-2.8
			S37,30.8,37,32.3c0,1.2,0.8,2.2,1.9,2.6v5c-1.1,0.4-1.9,1.4-1.9,2.6c0,1.2,0.8,2.2,1.9,2.6v5c-1.1,0.4-1.9,1.4-1.9,2.6
			c0,1.2,0.8,2.2,1.9,2.6v5C37.8,60.7,37,61.7,37,62.9z M39.8,63.8c-0.5,0-0.9-0.4-0.9-0.9s0.4-0.9,0.9-0.9c0.5,0,0.9,0.4,0.9,0.9
			S40.3,63.8,39.8,63.8z M39.8,31.4c0.5,0,0.9,0.4,0.9,0.9c0,0.5-0.4,0.9-0.9,0.9c-0.5,0-0.9-0.4-0.9-0.9
			C38.9,31.8,39.3,31.4,39.8,31.4z M39.8,41.6c0.5,0,0.9,0.4,0.9,0.9c0,0.5-0.4,0.9-0.9,0.9c-0.5,0-0.9-0.4-0.9-0.9
			C38.9,42,39.3,41.6,39.8,41.6z M39.8,51.8c0.5,0,0.9,0.4,0.9,0.9s-0.4,0.9-0.9,0.9c-0.5,0-0.9-0.4-0.9-0.9S39.3,51.8,39.8,51.8z"
			/>
	</g>
</g>
</svg>
