<?xml version="1.0" encoding="utf-8"?>
<!-- Generator: Adobe Illustrator 20.1.0, SVG Export Plug-In . SVG Version: 6.00 Build 0)  -->
<svg version="1.1" id="Layer_1" xmlns="http://www.w3.org/2000/svg" xmlns:xlink="http://www.w3.org/1999/xlink" x="0px" y="0px"
	 viewBox="0 0 400 75" style="enable-background:new 0 0 400 75;" xml:space="preserve">
<style type="text/css">
	.st0{fill:#FFFFFF;}
</style>
<g>
	<path class="st0" d="M136.1,45.1c0,1.6-0.3,3.1-0.8,4.5c-0.6,1.5-1.4,2.7-2.7,3.8c-1.2,1.1-2.8,2-4.7,2.7s-4.2,1-6.9,1
		c-1.4,0-2.8-0.1-4.2-0.4c-1.4-0.2-2.7-0.6-3.9-1c-1.2-0.4-2.4-1-3.4-1.6s-1.9-1.3-2.7-2.1c-0.5-0.5-0.7-1.1-0.7-1.9
		c0-0.8,0.3-1.4,0.8-2s1.2-0.9,2-0.9c0.3,0,0.6,0,0.9,0.1s0.6,0.2,0.8,0.4c1.4,1.2,3,2.1,4.8,2.9c1.8,0.8,3.8,1.2,6,1.2
		c1.6,0,3-0.2,4.1-0.6c1.1-0.4,2-0.9,2.7-1.5c0.7-0.6,1.2-1.3,1.5-2s0.4-1.5,0.4-2.1c0-1.2-0.3-2.2-1-2.9s-1.5-1.4-2.6-1.9
		s-2.4-1-3.8-1.3c-1.4-0.4-2.9-0.8-4.4-1.2s-3-0.9-4.3-1.4c-1.4-0.5-2.7-1.2-3.8-2c-1.1-0.8-2-1.9-2.7-3.1c-0.7-1.2-1-2.8-1-4.6
		c0-1.6,0.3-3.2,1-4.6s1.7-2.6,2.9-3.6s2.7-1.8,4.4-2.4c1.7-0.6,3.6-0.8,5.7-0.8c1.2,0,2.5,0.1,3.7,0.3c1.2,0.2,2.4,0.5,3.5,0.8
		c1.1,0.3,2.2,0.8,3.2,1.4s1.8,1.2,2.6,1.8c0.5,0.5,0.8,1.1,0.8,1.9s-0.3,1.4-0.8,1.9c-0.6,0.5-1.2,0.8-2,0.8
		c-0.6,0-1.2-0.2-1.6-0.5c-1.5-1.1-3.1-1.9-4.7-2.4c-1.7-0.5-3.4-0.8-5.2-0.8c-2.2,0-4.1,0.5-5.5,1.6s-2.1,2.5-2.1,4.2
		c0,1,0.3,1.9,1,2.6s1.6,1.2,2.7,1.7s2.3,0.9,3.8,1.3c1.4,0.4,2.8,0.7,4.3,1.1c1.5,0.4,2.9,0.9,4.4,1.5c1.4,0.6,2.7,1.3,3.8,2.2
		s2,2,2.6,3.2C135.8,41.6,136.1,43.2,136.1,45.1z"/>
	<path class="st0" d="M155.7,54.3c0,0.5-0.1,0.9-0.4,1.2c-0.3,0.3-0.7,0.6-1.1,0.9c-0.5,0.3-1.1,0.4-1.7,0.5
		c-0.7,0.1-1.4,0.2-2.2,0.2c-2.3,0-4.1-0.6-5.2-1.8c-1.2-1.2-1.7-3-1.7-5.2v-18h-2.8c-0.7,0-1.2-0.2-1.7-0.7c-0.4-0.5-0.7-1-0.7-1.7
		c0-0.6,0.2-1.2,0.7-1.6c0.4-0.4,1-0.7,1.7-0.7h2.8v-5.7c0-0.7,0.3-1.3,0.8-1.8s1.2-0.8,2-0.8c0.7,0,1.3,0.3,1.9,0.8
		c0.5,0.5,0.8,1.1,0.8,1.8v5.7h4c0.6,0,1.2,0.2,1.6,0.7c0.4,0.5,0.7,1,0.7,1.7c0,0.6-0.2,1.2-0.7,1.6c-0.4,0.4-1,0.7-1.6,0.7h-4
		v16.7c0,1.1,0.2,2,0.8,2.6c0.5,0.6,1.2,1,2.1,1c0.3,0,0.6,0,1-0.2c0.3-0.1,0.7-0.1,1-0.1c0.6,0,1.2,0.2,1.6,0.6
		C155.5,53.2,155.7,53.7,155.7,54.3z"/>
	<path class="st0" d="M184.7,56c-0.5,0.5-1.2,0.8-1.9,0.8s-1.3-0.3-1.9-0.8c-0.5-0.5-0.8-1.1-0.8-1.9v-1.7c-1.1,1.2-2.5,2.3-4.3,3.3
		c-1.8,0.9-3.8,1.4-6,1.4c-3.1,0-5.4-0.8-6.9-2.3s-2.3-3.8-2.3-6.9V29.7c0-0.7,0.3-1.3,0.8-1.8s1.2-0.8,2-0.8c0.7,0,1.3,0.3,1.8,0.8
		s0.8,1.1,0.8,1.8v16.4c0,1.2,0.1,2.2,0.4,3c0.3,0.8,0.7,1.5,1.3,1.9c0.6,0.5,1.2,0.9,2,1.1c0.8,0.2,1.6,0.3,2.5,0.3
		c1.7,0,3.2-0.4,4.7-1.3c1.4-0.8,2.6-1.8,3.4-2.9V29.7c0-0.7,0.3-1.3,0.8-1.8s1.2-0.8,2-0.8c0.7,0,1.3,0.3,1.8,0.8s0.8,1.1,0.8,1.8
		v24.5C185.5,54.9,185.2,55.5,184.7,56z"/>
	<path class="st0" d="M220.1,54.2c0,0.7-0.3,1.3-0.8,1.9c-0.5,0.5-1.2,0.8-1.9,0.8s-1.3-0.3-1.9-0.8s-0.8-1.1-0.8-1.9v-1.9
		c-1.1,1.4-2.5,2.6-4.1,3.5s-3.4,1.4-5.4,1.4c-1.9,0-3.6-0.4-5.2-1.1s-2.9-1.7-4.1-3c-1.1-1.3-2-2.9-2.7-4.8c-0.6-1.9-1-4-1-6.4
		c0-2.3,0.3-4.4,0.9-6.3c0.6-1.9,1.5-3.5,2.6-4.8s2.5-2.3,4.1-3.1c1.6-0.7,3.3-1.1,5.2-1.1s3.6,0.4,5.3,1.3s3.1,2.1,4.2,3.6v-13
		c0-0.7,0.3-1.3,0.8-1.8s1.2-0.8,2-0.8c0.7,0,1.3,0.3,1.8,0.8s0.8,1.1,0.8,1.8v35.7C219.9,54.2,220.1,54.2,220.1,54.2z M214.8,48.2
		V35.8c-0.8-1.2-1.9-2.2-3.4-3.1c-1.5-0.8-3.1-1.3-4.8-1.3c-1.3,0-2.5,0.3-3.6,0.8s-2,1.3-2.8,2.2s-1.3,2.1-1.7,3.3
		c-0.4,1.3-0.6,2.7-0.6,4.2s0.2,2.9,0.6,4.2c0.4,1.3,1,2.4,1.7,3.3c0.8,0.9,1.7,1.7,2.8,2.2s2.3,0.8,3.6,0.8c1.7,0,3.3-0.4,4.8-1.2
		C212.9,50.4,214,49.4,214.8,48.2z"/>
	<path class="st0" d="M253.1,29.7c0,0.4-0.1,0.7-0.2,0.9l-13,31.4c-0.9,2.2-2.2,3.8-3.7,4.7c-1.5,1-3.3,1.4-5.2,1.4
		c-0.5,0-1,0-1.4-0.1c-0.5-0.1-0.9-0.2-1.2-0.4c-0.4-0.2-0.7-0.4-0.9-0.7s-0.3-0.7-0.3-1.2c0-0.7,0.2-1.2,0.7-1.7s1-0.7,1.7-0.7
		c0.3,0,0.5,0,0.7,0s0.4,0,0.7,0c0.8,0,1.6-0.2,2.2-0.6c0.6-0.4,1.2-1.1,1.7-2.2l1.7-3.9l-10.7-26.2c-0.1-0.3-0.2-0.6-0.2-0.9
		c0-0.6,0.2-1.2,0.8-1.8c0.5-0.6,1.1-0.8,2-0.8c0.5,0,1,0.1,1.4,0.4s0.8,0.7,1,1.2l8.6,21.4l8.5-21.4c0.2-0.5,0.5-0.9,1-1.2
		c0.5-0.3,1-0.4,1.5-0.4c0.8,0,1.4,0.3,2,0.8C252.8,28.4,253.1,29.1,253.1,29.7z"/>
	<path class="st0" d="M276.7,18.8c0,0.6-0.2,1.2-0.7,1.5c-0.4,0.4-0.9,0.6-1.4,0.6s-1-0.1-1.4-0.4c-0.5-0.2-1-0.4-1.7-0.4
		c-1.4,0-2.4,0.4-3.2,1.3c-0.8,0.9-1.1,2.2-1.1,3.9v2h4c0.6,0,1.2,0.2,1.6,0.7s0.7,1,0.7,1.7c0,0.6-0.2,1.2-0.7,1.6
		c-0.4,0.4-1,0.7-1.6,0.7h-4v22c0,0.7-0.3,1.3-0.8,1.9s-1.2,0.8-1.9,0.8c-0.7,0-1.3-0.3-1.9-0.8c-0.5-0.5-0.8-1.1-0.8-1.9V32H259
		c-0.7,0-1.2-0.2-1.7-0.7s-0.6-1-0.6-1.7c0-0.6,0.2-1.2,0.6-1.6s1-0.7,1.7-0.7h2.9v-2c0-3,0.8-5.4,2.4-7c1.6-1.7,3.7-2.5,6.4-2.5
		c0.6,0,1.3,0.1,2,0.2s1.3,0.3,1.9,0.5c0.6,0.2,1.1,0.5,1.5,0.9C276.5,17.8,276.7,18.2,276.7,18.8z"/>
	<path class="st0" d="M304.7,41.9c0,2.1-0.3,4.1-1,5.9c-0.7,1.8-1.6,3.5-2.9,4.8c-1.3,1.4-2.8,2.5-4.6,3.3c-1.8,0.8-3.8,1.2-6.1,1.2
		c-2.2,0-4.3-0.4-6.1-1.2s-3.3-1.9-4.6-3.3s-2.2-3-2.9-4.8c-0.7-1.8-1-3.8-1-5.9c0-2.1,0.3-4,1-5.9c0.7-1.8,1.6-3.5,2.9-4.8
		s2.8-2.5,4.6-3.3c1.8-0.8,3.8-1.2,6.1-1.2c2.3,0,4.3,0.4,6.1,1.2c1.8,0.8,3.3,1.9,4.6,3.3c1.3,1.4,2.2,3,2.9,4.8
		C304.4,37.9,304.7,39.8,304.7,41.9z M299.1,41.9c0-1.4-0.2-2.7-0.6-4c-0.4-1.2-1-2.3-1.8-3.3s-1.7-1.7-2.8-2.3
		c-1.1-0.6-2.4-0.9-3.9-0.9c-1.4,0-2.7,0.3-3.8,0.9c-1.1,0.6-2.1,1.3-2.8,2.3c-0.8,1-1.4,2.1-1.8,3.3s-0.6,2.6-0.6,4s0.2,2.7,0.6,4
		s1,2.4,1.8,3.3s1.7,1.7,2.8,2.3c1.1,0.6,2.4,0.9,3.8,0.9c1.5,0,2.8-0.3,3.9-0.9c1.1-0.6,2-1.4,2.8-2.3s1.4-2.1,1.8-3.3
		C298.9,44.6,299.1,43.3,299.1,41.9z"/>
	<path class="st0" d="M326.9,29.4c0,0.8-0.3,1.5-0.8,2s-1.2,0.8-1.9,0.9c-1.4,0.1-2.7,0.5-4,1.1s-2.3,1.6-3.2,2.9v17.9
		c0,0.7-0.3,1.3-0.8,1.9c-0.5,0.5-1.2,0.8-1.9,0.8h-0.1c-0.7,0-1.3-0.3-1.8-0.8s-0.8-1.1-0.8-1.8V29.7c0-0.7,0.3-1.3,0.8-1.8
		s1.2-0.8,2-0.8c0.7,0,1.3,0.3,1.8,0.8s0.8,1.1,0.8,1.8V32c0.4-0.6,0.9-1.1,1.4-1.7s1.1-1.1,1.7-1.6s1.3-0.9,2.1-1.2
		c0.7-0.3,1.5-0.4,2.3-0.4c0.7,0,1.3,0.2,1.7,0.7C326.6,28.2,326.9,28.8,326.9,29.4z"/>
	<path class="st0" d="M371.7,56c-0.5,0.5-1.2,0.8-1.9,0.8c-0.7,0-1.3-0.3-1.9-0.8c-0.5-0.5-0.8-1.1-0.8-1.9v-17
		c0-1.7-0.4-3.1-1.2-4.1s-2.1-1.5-3.8-1.5c-1.5,0-2.9,0.4-4.2,1.3c-1.3,0.9-2.3,1.8-3.1,2.9v18.5c0,0.7-0.3,1.3-0.8,1.9
		c-0.5,0.5-1.2,0.8-1.9,0.8c-0.7,0-1.3-0.3-1.9-0.8c-0.5-0.5-0.8-1.1-0.8-1.9v-17c0-1.7-0.4-3.1-1.2-4.1c-0.8-1-2.1-1.5-3.9-1.5
		c-1.4,0-2.8,0.4-4.1,1.3c-1.3,0.9-2.3,1.9-3.1,2.9v18.4c0,0.7-0.3,1.3-0.8,1.9s-1.2,0.8-1.9,0.8c-0.7,0-1.3-0.3-1.9-0.8
		c-0.5-0.5-0.8-1.1-0.8-1.9V29.7c0-0.7,0.3-1.3,0.8-1.8s1.2-0.8,2-0.8c0.7,0,1.3,0.3,1.8,0.8s0.8,1.1,0.8,1.8v1.9
		c0.3-0.5,0.7-1,1.3-1.5s1.4-1.1,2.2-1.6c0.8-0.5,1.7-0.9,2.7-1.2c1-0.3,2-0.5,3.1-0.5c2.2,0,4,0.5,5.3,1.5s2.1,2.3,2.6,3.8
		c0.4-0.6,0.9-1.3,1.6-1.9s1.4-1.2,2.3-1.7s1.8-0.9,2.8-1.2c1-0.3,2-0.5,3.1-0.5c2.7,0,4.7,0.7,6.1,2.2c1.4,1.4,2.1,3.6,2.1,6.6
		v18.7C372.5,54.9,372.2,55.5,371.7,56z"/>
</g>
<path class="st0" d="M44.3,39.8c-0.3,0-0.7-0.1-1-0.2l-40-16c-1-0.4-1.7-1.4-1.7-2.6s0.7-2.1,1.7-2.6l40-16c0.7-0.3,1.4-0.3,2,0
	l40,16c1,0.4,1.7,1.4,1.7,2.6s-0.7,2.1-1.7,2.6l-40,16C45,39.7,44.6,39.8,44.3,39.8z M11.7,21l32.6,13l32.6-13L44.3,8L11.7,21z"/>
<path class="st0" d="M44.3,55.8c-0.3,0-0.7-0.1-1-0.2l-40-16C1.9,39,1.2,37.4,1.8,36s2.2-2.1,3.6-1.5l39,15.6l39-15.6
	c1.4-0.6,3,0.1,3.6,1.5s-0.1,3-1.5,3.6l-40,16C45,55.7,44.6,55.8,44.3,55.8z"/>
<path class="st0" d="M44.3,71.8c-0.3,0-0.7-0.1-1-0.2l-40-16C1.9,55,1.2,53.4,1.8,52s2.2-2.1,3.6-1.5l39,15.6l39-15.6
	c1.4-0.6,3,0.1,3.6,1.5s-0.1,3-1.5,3.6l-40,16C45,71.7,44.6,71.8,44.3,71.8z"/>
</svg>
