<?xml version="1.0" encoding="utf-8"?>
<!-- Generator: Adobe Illustrator 20.1.0, SVG Export Plug-In . SVG Version: 6.00 Build 0)  -->
<svg version="1.1" id="Layer_1" xmlns="http://www.w3.org/2000/svg" xmlns:xlink="http://www.w3.org/1999/xlink" x="0px" y="0px"
	 viewBox="0 0 100 100" style="enable-background:new 0 0 100 100;" xml:space="preserve">
<style type="text/css">
	.st0{fill:#FFFFFF;}
</style>
<path class="st0" d="M94.3,0c-1.5,0-2.9,0.6-4,1.7L50,41.9L9.8,1.7c-2.2-2.2-5.9-2.2-8.1,0s-2.2,5.9,0,8.1L41.9,50L1.7,90.2
	c-2.2,2.2-2.2,5.9,0,8.1c1.1,1.1,2.6,1.7,4,1.7c1.5,0,2.9-0.6,4-1.7L50,58.1l40.2,40.2c1.1,1.1,2.6,1.7,4,1.7c1.5,0,2.9-0.6,4-1.7
	c2.2-2.2,2.2-5.9,0-8.1L58.1,50L98.3,9.8c2.2-2.2,2.2-5.9,0-8.1C97.2,0.6,95.7,0,94.3,0z"/>
</svg>
